<?xml version="1.0" encoding="UTF-8" standalone="no"?>
<!-- Created with Inkscape (http://www.inkscape.org/) -->

<svg
   xmlns:dc="http://purl.org/dc/elements/1.1/"
   xmlns:cc="http://creativecommons.org/ns#"
   xmlns:rdf="http://www.w3.org/1999/02/22-rdf-syntax-ns#"
   xmlns:svg="http://www.w3.org/2000/svg"
   xmlns="http://www.w3.org/2000/svg"
   xmlns:sodipodi="http://sodipodi.sourceforge.net/DTD/sodipodi-0.dtd"
   xmlns:inkscape="http://www.inkscape.org/namespaces/inkscape"
   width="205.37068mm"
   height="53.985428mm"
   viewBox="0 0 205.37068 53.985428"
   version="1.1"
   id="svg6157"
   inkscape:export-filename="/Volumes/Private-PC/DynFi/Graphic Design/Logo/Ok/DynFi_logo_full_2.png"
   inkscape:export-xdpi="96"
   inkscape:export-ydpi="96"
   inkscape:version="0.92.4 (5da689c313, 2019-01-14)"
   sodipodi:docname="default-logo.svg">
  <sodipodi:namedview
     id="base"
     pagecolor="#ffffff"
     bordercolor="#666666"
     borderopacity="1.0"
     inkscape:pageopacity="0.0"
     inkscape:pageshadow="2"
     inkscape:zoom="1"
     inkscape:cx="586.22378"
     inkscape:cy="12.864178"
     inkscape:document-units="mm"
     inkscape:current-layer="layer1"
     showgrid="false"
     showguides="true"
     inkscape:guide-bbox="true"
     inkscape:window-width="1912"
     inkscape:window-height="981"
     inkscape:window-x="0"
     inkscape:window-y="0"
     inkscape:window-maximized="0"
     inkscape:snap-text-baseline="false"
     inkscape:pagecheckerboard="true"
     width="220mm"
     fit-margin-top="1"
     fit-margin-left="1"
     fit-margin-right="1"
     fit-margin-bottom="1">
    <sodipodi:guide
       position="105.94651,48.33972"
       orientation="0,1"
       id="guide8333"
       inkscape:locked="false" />
    <sodipodi:guide
       position="110.54421,10.822479"
       orientation="0,1"
       id="guide8335"
       inkscape:locked="false" />
    <sodipodi:guide
       position="200.15339,9.8569612"
       orientation="1,0"
       id="guide842"
       inkscape:locked="false" />
    <sodipodi:guide
       position="159.37762,1.0999064"
       orientation="0,1"
       id="guide1515"
       inkscape:locked="false" />
    <sodipodi:guide
       position="155.08621,7.7971013"
       orientation="1,0"
       id="guide1517"
       inkscape:locked="false" />
    <sodipodi:guide
       position="158.75992,6.7892713"
       orientation="1,0"
       id="guide1519"
       inkscape:locked="false" />
  </sodipodi:namedview>
  <defs
     id="defs6151" />
  <metadata
     id="metadata6154">
    <rdf:RDF>
      <cc:Work
         rdf:about="">
        <dc:format>image/svg+xml</dc:format>
        <dc:type
           rdf:resource="http://purl.org/dc/dcmitype/StillImage" />
        <dc:title></dc:title>
      </cc:Work>
    </rdf:RDF>
  </metadata>
  <g
     transform="translate(-9.5477464,-236.18188)"
     id="layer1"
     inkscape:groupmode="layer"
     inkscape:label="Calque 1">
    <g
       id="g928"
       transform="matrix(0.08576062,0,0,0.08576062,7.5860372,224.29768)"
       style="fill:#072047;fill-opacity:1"
       inkscape:export-xdpi="299.99945"
       inkscape:export-ydpi="299.99945">
      <path
         d="m 283.5,659.661 -114.786,-37.567 -15.927,8.583 c -10.1,5.443 -16.276,8.234 -16.881,7.629 -0.605,-0.604 0.141,-7.843 2.038,-19.785 l 2.991,-18.832 -33.217,-44.567 C 89.448,530.61 73.6,509.524 72.5,508.263 70.804,506.319 68.753,505.76 59,504.588 c -6.325,-0.76 -14.312,-1.698 -17.75,-2.083 -4.2,-0.471 -6.25,-1.14 -6.25,-2.038 0,-0.735 6.125,-7.665 13.612,-15.401 L 62.224,471.001 61.479,415.82 60.735,360.638 47.192,346.794 c -8.056,-8.235 -13.167,-14.199 -12.617,-14.721 0.509,-0.482 9.25,-1.824 19.425,-2.981 17.852,-2.031 18.576,-2.201 20.671,-4.848 1.194,-1.509 15.303,-20.712 31.354,-42.674 16.05,-21.961 29.682,-40.73 30.293,-41.708 0.84,-1.345 0.552,-5.385 -1.18,-16.567 -1.26,-8.134 -2.553,-16.998 -2.872,-19.7 -0.545,-4.595 -0.45,-4.876 1.48,-4.371 1.134,0.296 9.202,4.405 17.929,9.131 l 15.867,8.593 41.979,-13.048 c 23.088,-7.176 47.638,-14.821 54.555,-16.987 12.576,-3.939 12.576,-3.939 20.5,-20.116 4.358,-8.897 8.468,-16.348 9.133,-16.557 0.72,-0.226 4.628,6.436 9.646,16.44 l 8.436,16.82 55.984,18.29 55.983,18.289 16.845,-9.016 c 10.893,-5.83 17.187,-8.673 17.815,-8.045 0.628,0.628 -0.001,7.244 -1.781,18.727 -1.514,9.765 -2.813,18.655 -2.887,19.755 -0.081,1.19 12.961,19.814 32.213,46 17.791,24.2 32.88,44.586 33.53,45.302 0.733,0.807 8.311,2.12 19.955,3.458 12.659,1.454 18.934,2.573 19.265,3.435 0.271,0.706 -5.549,7.574 -12.977,15.314 l -13.468,14.035 0.385,39.228 c 0.212,21.575 0.647,46.497 0.968,55.381 0.583,16.152 0.583,16.152 14.122,30.309 7.446,7.786 13.138,14.517 12.648,14.958 -0.49,0.44 -8.957,1.742 -18.816,2.893 -14.116,1.647 -18.282,2.474 -19.607,3.89 -0.926,0.988 -14.46,19.316 -30.076,40.729 -15.616,21.412 -29.892,41.062 -31.725,43.666 -3.333,4.735 -3.333,4.735 -0.299,23.567 1.935,12.006 2.687,19.18 2.077,19.791 -0.611,0.61 -3.482,-0.407 -7.92,-2.807 -3.829,-2.071 -11.494,-6.231 -17.033,-9.244 l -10.07,-5.479 -54.211,16.812 -54.211,16.811 -8.13,15.935 c -4.471,8.765 -8.608,16.096 -9.193,16.291 -0.585,0.195 -4.802,-6.951 -9.37,-15.88 z m -48,-66.145 c 6.158,-0.223 13.421,-1.125 16.5,-2.05 3.025,-0.909 7.806,-2.961 10.624,-4.56 2.818,-1.6 6.955,-4.895 9.193,-7.323 2.238,-2.428 5.424,-7.098 7.079,-10.377 1.655,-3.278 3.543,-8.859 4.196,-12.4 0.652,-3.542 0.972,-10.141 0.71,-14.666 -0.356,-6.145 -0.985,-8.911 -2.488,-10.933 -1.256,-1.689 -3.146,-2.821 -5.029,-3.01 -2.358,-0.237 -3.593,0.38 -5.652,2.827 -1.448,1.722 -2.832,4.108 -3.075,5.303 -0.242,1.195 -0.905,5.594 -1.471,9.775 -0.567,4.18 -1.899,9.627 -2.96,12.102 -1.062,2.476 -3.396,6.172 -5.188,8.213 -1.793,2.041 -5.521,4.858 -8.286,6.259 -2.784,1.411 -7.511,2.771 -10.59,3.047 -3.06,0.275 -7.427,-0.005 -9.705,-0.621 -2.645,-0.716 -5.408,-2.521 -7.642,-4.995 -2.315,-2.562 -3.863,-5.566 -4.572,-8.87 -0.734,-3.423 -0.759,-6.936 -0.08,-11.154 0.545,-3.386 1.913,-8.618 3.038,-11.627 1.126,-3.009 3.22,-7.606 4.653,-10.214 1.433,-2.608 5.787,-7.901 9.676,-11.763 5.161,-5.126 9.498,-8.265 16.069,-11.63 4.95,-2.535 13.725,-6.303 19.5,-8.375 5.775,-2.071 14.337,-5.719 19.027,-8.106 8.528,-4.341 8.528,-4.341 16.024,-0.412 4.123,2.16 11.311,5.31 15.973,6.999 4.662,1.689 11.401,4.28 14.976,5.758 3.575,1.477 9.052,4.172 12.171,5.989 3.12,1.816 8.147,5.564 11.173,8.329 3.025,2.765 7.125,7.476 9.112,10.468 1.986,2.993 4.707,8.352 6.046,11.91 1.339,3.557 2.882,9.25 3.43,12.65 0.683,4.243 0.659,7.748 -0.076,11.178 -0.709,3.305 -2.257,6.308 -4.574,8.872 -2.009,2.225 -5.138,4.367 -7.342,5.027 -2.113,0.633 -6.477,0.912 -9.703,0.619 -3.383,-0.306 -8.008,-1.619 -10.937,-3.103 -2.792,-1.415 -6.685,-4.452 -8.653,-6.751 -1.986,-2.321 -4.457,-6.895 -5.557,-10.289 -1.089,-3.362 -2.262,-8.812 -2.606,-12.112 -0.343,-3.3 -1.079,-7.193 -1.635,-8.651 -0.555,-1.458 -2.052,-3.63 -3.325,-4.827 -1.505,-1.413 -3.28,-2.06 -5.071,-1.848 -1.567,0.185 -3.623,1.494 -4.767,3.033 -1.504,2.023 -2.132,4.788 -2.489,10.947 -0.262,4.532 0.019,10.905 0.625,14.162 0.605,3.257 2.418,8.737 4.028,12.177 1.609,3.439 4.575,8.079 6.591,10.31 2.015,2.231 5.892,5.486 8.614,7.232 2.722,1.747 7.72,4.039 11.108,5.093 3.387,1.054 10.13,2.199 14.984,2.543 5.172,0.367 11.725,0.148 15.828,-0.53 3.851,-0.636 9.459,-2.243 12.462,-3.571 3.003,-1.328 7.544,-4.498 10.091,-7.045 2.547,-2.548 5.737,-7.046 7.087,-9.996 1.351,-2.95 3.002,-7.988 3.67,-11.196 0.668,-3.208 1.191,-9.433 1.162,-13.833 -0.035,-5.371 -0.805,-10.452 -2.344,-15.465 -1.26,-4.105 -3.558,-9.955 -5.106,-13 -1.549,-3.044 -5.08,-8.743 -7.849,-12.665 -2.768,-3.922 -7.646,-9.968 -10.84,-13.436 -3.194,-3.468 -5.133,-6.05 -4.308,-5.738 0.825,0.312 4.376,1.74 7.891,3.173 3.516,1.433 9.591,3.488 13.5,4.566 3.91,1.078 10.753,2.636 15.206,3.463 4.454,0.826 13.229,1.801 19.5,2.167 8.338,0.485 13.762,0.252 20.18,-0.869 4.827,-0.843 11.685,-2.894 15.24,-4.557 3.699,-1.731 8.572,-5.132 11.391,-7.951 2.709,-2.71 6.118,-7.278 7.574,-10.153 1.457,-2.875 3.519,-8.63 4.583,-12.791 1.317,-5.149 1.935,-10.957 1.935,-18.194 0,-6.319 -0.621,-13.014 -1.531,-16.508 -0.842,-3.234 -2.943,-8.527 -4.668,-11.763 -1.725,-3.236 -5.536,-8.077 -8.469,-10.758 -2.933,-2.681 -7.695,-6.028 -10.582,-7.438 -2.888,-1.411 -7.95,-3.063 -11.25,-3.673 -3.3,-0.609 -8.579,-0.817 -11.732,-0.461 -3.152,0.355 -8.327,1.536 -11.5,2.623 -3.172,1.087 -7.837,3.384 -10.366,5.104 -2.529,1.72 -5.982,5.197 -7.673,7.726 -1.692,2.529 -3.785,6.751 -4.652,9.383 -0.868,2.632 -1.577,7.409 -1.577,10.615 0,4.384 0.514,6.484 2.073,8.465 1.241,1.579 3.064,2.635 4.547,2.635 1.362,0 3.466,-1.076 4.678,-2.392 1.211,-1.315 2.979,-4.608 3.928,-7.317 0.949,-2.709 3.046,-6.747 4.66,-8.975 1.687,-2.329 4.903,-5.004 7.568,-6.294 3.77,-1.825 5.903,-2.171 11.45,-1.857 5.577,0.315 7.486,0.895 10.496,3.191 2.023,1.543 4.768,4.457 6.1,6.475 1.333,2.018 3.167,6.583 4.077,10.144 1.111,4.351 1.51,8.965 1.214,14.067 -0.321,5.546 -1.093,8.786 -2.865,12.025 -1.879,3.433 -3.716,5.078 -8.143,7.292 -4.45,2.225 -7.579,2.974 -14.126,3.383 -4.625,0.289 -12.166,-0.025 -16.759,-0.696 -4.593,-0.672 -11.961,-2.348 -16.374,-3.724 -4.413,-1.377 -9.993,-3.639 -12.399,-5.028 -2.406,-1.388 -6.092,-4.076 -8.191,-5.973 -2.1,-1.896 -4.6,-5.498 -5.557,-8.004 -1.458,-3.818 -1.563,-5.386 -0.646,-9.686 0.601,-2.822 2.848,-10.081 4.992,-16.131 2.144,-6.05 7.188,-17.408 11.208,-25.24 4.447,-8.663 9.527,-16.887 12.974,-21 3.115,-3.718 9.307,-9.685 13.76,-13.26 4.452,-3.575 11.641,-8.386 15.975,-10.692 4.333,-2.305 10.04,-4.676 12.681,-5.268 3.937,-0.882 5.406,-0.789 8.163,0.52 2.016,0.956 4.038,3.02 5.052,5.157 1.058,2.23 1.506,4.931 1.199,7.223 -0.27,2.014 -1.489,5.617 -2.708,8.006 -1.759,3.45 -2,4.819 -1.167,6.646 0.577,1.267 2.147,3.022 3.489,3.901 1.511,0.991 3.389,1.36 4.935,0.972 1.373,-0.345 3.653,-1.834 5.066,-3.309 1.545,-1.612 3.231,-5.263 4.228,-9.152 1.092,-4.266 1.494,-8.749 1.179,-13.156 -0.29,-4.053 -1.244,-7.996 -2.422,-10.014 -1.069,-1.83 -3.449,-4.342 -5.29,-5.583 -1.841,-1.24 -5.192,-2.785 -7.446,-3.433 -2.255,-0.647 -7.924,-1.209 -12.599,-1.248 -7.603,-0.062 -9.228,0.275 -15.394,3.195 -3.791,1.795 -9.825,5.357 -13.409,7.914 -5.886,4.201 -6.449,4.417 -5.818,2.236 0.384,-1.328 0.965,-3.876 1.29,-5.663 0.326,-1.786 0.003,-5.386 -0.716,-8 -1.047,-3.802 -2.823,-6.232 -8.881,-12.154 -4.165,-4.071 -8.874,-8.891 -10.465,-10.711 -2.076,-2.373 -3.019,-4.661 -3.339,-8.097 -0.359,-3.853 0.015,-5.474 1.913,-8.29 1.297,-1.925 3.925,-4.287 5.839,-5.248 1.914,-0.962 5.505,-1.748 7.98,-1.747 2.704,0.002 5.781,0.784 7.71,1.96 1.765,1.076 4.09,3.683 5.166,5.792 1.076,2.11 2.273,5.518 2.658,7.574 0.386,2.056 1.466,4.683 2.401,5.837 1.432,1.768 2.041,1.916 3.87,0.936 1.194,-0.639 2.437,-2.221 2.762,-3.515 0.325,-1.295 0.28,-4.544 -0.099,-7.221 -0.379,-2.677 -1.563,-6.893 -2.63,-9.368 -1.067,-2.475 -3.38,-6.002 -5.139,-7.837 -1.76,-1.836 -4.836,-4.182 -6.836,-5.213 -2.001,-1.032 -6.555,-2.341 -10.121,-2.911 -4.301,-0.687 -8.21,-0.709 -11.612,-0.063 -2.821,0.534 -6.367,1.619 -7.879,2.409 -1.513,0.79 -3.951,2.714 -5.418,4.276 -1.466,1.562 -3.491,4.588 -4.5,6.725 -1.324,2.807 -1.833,6.221 -1.833,12.294 0,6.83 0.421,9.177 2.245,12.507 1.235,2.255 6.037,8.032 10.671,12.84 7.254,7.524 8.514,9.348 9.058,13.107 0.387,2.679 0.091,6.127 -0.766,8.923 -0.768,2.506 -3.047,7.682 -5.065,11.5 -2.018,3.819 -6.391,10.226 -9.717,14.238 -3.326,4.013 -9.179,9.863 -13.005,13 -3.826,3.138 -9.727,7.39 -13.111,9.45 -3.385,2.059 -6.308,3.591 -6.495,3.403 -0.188,-0.187 0.729,-2.772 2.037,-5.744 1.307,-2.972 3.089,-8.329 3.959,-11.904 0.871,-3.575 2.069,-9.271 2.663,-12.659 0.595,-3.387 1.545,-13.512 2.113,-22.5 0.568,-8.987 0.748,-19.941 0.401,-24.341 -0.347,-4.4 -1.336,-10.925 -2.198,-14.5 -0.861,-3.575 -3.023,-9.705 -4.804,-13.622 -1.781,-3.917 -5.054,-9.767 -7.274,-13 -2.219,-3.233 -7.113,-8.873 -10.874,-12.535 -3.761,-3.661 -9.366,-8.405 -12.455,-10.541 -3.089,-2.135 -8.854,-5.375 -12.811,-7.199 -3.957,-1.824 -9.529,-3.938 -12.383,-4.698 -2.854,-0.759 -7.682,-1.386 -10.729,-1.393 -3.047,-0.007 -8.222,0.683 -11.5,1.533 -3.278,0.85 -9.058,2.969 -12.843,4.71 -3.786,1.74 -9.411,4.912 -12.5,7.048 -3.09,2.137 -8.468,6.655 -11.953,10.041 -3.484,3.386 -8.315,8.904 -10.735,12.263 -2.42,3.358 -5.74,8.983 -7.379,12.5 -1.638,3.516 -4.005,10.218 -5.26,14.893 -2.009,7.483 -2.261,10.59 -2.109,25.965 0.096,9.605 0.871,22.88 1.723,29.5 0.852,6.619 2.415,15.323 3.473,19.341 1.058,4.019 3.038,9.558 4.4,12.31 1.996,4.034 2.161,4.886 0.85,4.395 -0.895,-0.334 -3.917,-1.987 -6.715,-3.672 -2.798,-1.686 -8.331,-5.741 -12.295,-9.013 -3.964,-3.271 -9.775,-9.081 -12.912,-12.91 -3.138,-3.829 -7.608,-10.439 -9.933,-14.689 -2.326,-4.25 -4.756,-10.072 -5.401,-12.938 -0.99,-4.401 -0.916,-5.882 0.473,-9.52 1.049,-2.747 4.351,-6.996 9.109,-11.722 4.105,-4.078 8.495,-9.358 9.755,-11.734 1.862,-3.509 2.292,-5.888 2.292,-12.68 0,-6.028 -0.512,-9.445 -1.833,-12.247 -1.009,-2.137 -3.034,-5.163 -4.5,-6.725 -1.467,-1.562 -3.905,-3.486 -5.418,-4.276 -1.513,-0.79 -5.058,-1.875 -7.879,-2.409 -3.404,-0.646 -7.312,-0.624 -11.625,0.065 -3.573,0.571 -7.902,1.745 -9.621,2.61 -1.718,0.865 -4.626,2.985 -6.462,4.711 -1.835,1.726 -4.23,4.871 -5.322,6.989 -1.091,2.118 -2.426,6.6 -2.968,9.96 -0.541,3.36 -0.728,7.127 -0.416,8.37 0.312,1.244 1.491,2.756 2.62,3.36 1.507,0.806 2.421,0.792 3.441,-0.055 0.764,-0.634 2.129,-3.697 3.033,-6.806 0.904,-3.11 2.297,-6.917 3.095,-8.461 0.799,-1.544 2.893,-3.686 4.653,-4.759 1.855,-1.131 5.003,-1.954 7.484,-1.956 2.355,-0.002 5.73,0.613 7.5,1.367 1.77,0.754 4.283,2.526 5.584,3.938 1.462,1.586 2.556,4.256 2.864,6.987 0.332,2.944 -0.055,5.586 -1.157,7.909 -0.91,1.918 -5.303,6.798 -9.762,10.843 -5.88,5.335 -8.785,8.839 -10.578,12.754 -1.869,4.083 -2.336,6.407 -1.916,9.548 0.306,2.282 0.881,5.237 1.279,6.565 0.651,2.174 0.076,1.952 -5.793,-2.236 -3.584,-2.557 -9.445,-6.02 -13.025,-7.695 -3.579,-1.676 -8.763,-3.313 -11.518,-3.639 -2.755,-0.327 -8.057,-0.063 -11.782,0.586 -3.725,0.648 -8.506,2.063 -10.624,3.144 -2.119,1.081 -5.028,3.742 -6.466,5.915 -1.875,2.833 -2.756,5.73 -3.119,10.25 -0.278,3.466 0.023,8.852 0.671,11.969 0.647,3.117 2.179,7.158 3.405,8.979 1.226,1.822 3.537,3.941 5.135,4.709 2.494,1.199 3.264,1.196 5.438,-0.024 1.393,-0.782 3.185,-2.584 3.983,-4.005 1.318,-2.349 1.241,-2.981 -0.848,-6.975 -1.264,-2.416 -2.518,-6.018 -2.788,-8.004 -0.306,-2.247 0.147,-4.955 1.199,-7.172 1.014,-2.137 3.036,-4.201 5.052,-5.157 2.745,-1.303 4.232,-1.401 8.108,-0.532 2.611,0.585 8.204,2.862 12.429,5.061 4.226,2.198 11.44,7.015 16.031,10.704 4.591,3.689 10.97,9.837 14.175,13.663 4.018,4.795 8.397,12.096 14.096,23.5 4.547,9.099 9.742,21.044 11.544,26.544 1.801,5.5 3.521,11.691 3.821,13.758 0.336,2.318 -0.084,5.406 -1.096,8.055 -0.902,2.364 -3.324,5.902 -5.382,7.864 -2.058,1.961 -5.767,4.708 -8.242,6.104 -2.475,1.396 -8.111,3.664 -12.524,5.041 -4.413,1.376 -11.781,3.052 -16.374,3.724 -4.593,0.671 -12.135,0.985 -16.76,0.696 -6.546,-0.409 -9.675,-1.158 -14.125,-3.383 -4.428,-2.214 -6.281,-3.874 -8.217,-7.359 -2.223,-4.002 -2.5,-5.665 -2.5,-15.025 0,-10.04 0.161,-10.844 3.5,-17.461 2.144,-4.25 4.988,-8.113 7.343,-9.975 3.583,-2.834 4.404,-3.039 12.164,-3.039 7.635,0 8.678,0.249 12.657,3.022 3.408,2.375 5.218,4.836 8.457,11.5 2.267,4.663 4.854,9.266 5.75,10.228 0.896,0.963 2.721,1.75 4.056,1.75 1.432,0 3.278,-1.081 4.5,-2.635 1.559,-1.981 2.073,-4.081 2.073,-8.465 0,-3.206 -0.71,-7.983 -1.577,-10.615 -0.867,-2.632 -2.96,-6.854 -4.652,-9.383 -1.691,-2.529 -5.144,-6.006 -7.673,-7.726 -2.529,-1.72 -7.194,-4.017 -10.366,-5.104 -3.173,-1.087 -8.348,-2.268 -11.5,-2.623 -3.153,-0.356 -8.432,-0.148 -11.732,0.462 -3.3,0.61 -8.475,2.339 -11.5,3.843 -3.025,1.503 -8.035,5.236 -11.134,8.294 -3.098,3.058 -6.778,7.817 -8.176,10.577 -1.398,2.76 -3.251,7.751 -4.116,11.091 -0.924,3.564 -1.567,10.145 -1.557,15.929 0.01,5.42 0.682,13.005 1.494,16.855 0.812,3.85 2.905,9.91 4.652,13.467 1.747,3.557 5.252,8.543 7.789,11.081 2.538,2.537 7.565,6.066 11.172,7.842 3.974,1.956 10.067,3.841 15.467,4.783 6.555,1.145 11.922,1.38 20.311,0.892 6.272,-0.366 15.047,-1.341 19.5,-2.167 4.454,-0.827 11.297,-2.385 15.206,-3.463 3.91,-1.078 9.985,-3.133 13.5,-4.566 3.516,-1.433 7.067,-2.863 7.892,-3.177 0.825,-0.314 -0.94,2.102 -3.922,5.369 -2.982,3.266 -7.393,8.608 -9.802,11.87 -2.41,3.262 -5.992,8.812 -7.961,12.334 -1.969,3.521 -4.601,9.627 -5.848,13.568 -1.248,3.942 -2.563,10.092 -2.924,13.667 -0.419,4.161 -0.126,9.46 0.815,14.723 0.809,4.522 2.598,10.686 3.976,13.696 1.379,3.011 4.483,7.451 6.898,9.866 2.416,2.416 6.875,5.567 9.908,7.002 3.034,1.435 7.731,3.063 10.438,3.618 2.707,0.555 9.872,0.83 15.922,0.611 z m 32.8,-183.555 c -1.54,-0.022 -4.15,-0.635 -5.8,-1.363 -1.65,-0.729 -3.752,-2.174 -4.671,-3.211 -0.919,-1.038 -2.607,-4.266 -3.75,-7.174 -1.143,-2.908 -2.079,-7.093 -2.079,-9.3 0,-2.206 0.659,-5.286 1.464,-6.843 0.805,-1.558 2.843,-3.992 4.529,-5.411 1.686,-1.419 4.628,-2.872 6.536,-3.23 1.909,-0.358 5.073,-0.351 7.031,0.016 1.957,0.368 5.28,2.223 7.384,4.123 2.611,2.359 4.181,4.871 4.948,7.918 0.967,3.84 0.826,5.336 -1.01,10.738 -1.173,3.452 -3.089,7.331 -4.258,8.621 -1.168,1.29 -3.339,2.978 -4.824,3.75 -1.486,0.773 -3.961,1.388 -5.5,1.366 z M 327,410 c -2.168,0 -5.114,-0.933 -7.102,-2.25 -2.033,-1.346 -4.49,-4.46 -6.116,-7.75 -1.857,-3.757 -2.728,-7.116 -2.75,-10.602 -0.023,-3.683 0.594,-6.021 2.218,-8.408 1.237,-1.818 3.52,-4.247 5.073,-5.398 2.109,-1.563 4.304,-2.092 8.677,-2.092 4.373,0 6.568,0.529 8.677,2.092 1.552,1.151 3.835,3.58 5.073,5.398 1.624,2.387 2.241,4.725 2.218,8.408 -0.022,3.486 -0.893,6.845 -2.75,10.602 -1.626,3.29 -4.084,6.404 -6.116,7.75 -1.989,1.317 -4.934,2.25 -7.102,2.25 z"
         id="path"
         inkscape:connector-curvature="0"
         style="fill:#072047;fill-opacity:1;stroke:none" />
      <path
         inkscape:connector-curvature="0"
         id="path831"
         d="m 293.89082,150.70801 c -2.69126,1.57998 -3.42443,5.28543 -5.13523,7.76945 -4.00669,7.33389 -7.29734,15.12312 -12.022,22.02449 -5.60344,5.50238 -13.99121,6.16764 -21.01172,8.90137 -29.38039,9.08309 -58.74998,18.46642 -88.2041,27.14258 -11.59141,-5.54563 -22.56009,-12.55581 -34.46777,-17.44531 -2.10162,0.35217 -0.70732,3.34027 -0.84082,4.73828 1.47891,11.92033 3.9433,23.74966 4.26758,35.78906 -20.73426,28.19638 -41.03372,56.73678 -62.087893,84.67969 -2.86558,3.40403 -8.049345,2.57592 -11.955078,3.57324 -8.987002,1.40571 -18.181496,1.83114 -27.03125,3.93945 -1.786177,1.27621 1.248071,3.10957 1.835649,4.27987 7.536527,8.45499 15.548076,16.47046 23.35771,24.67033 0.462844,36.80579 1.186555,73.60978 1.303711,110.41895 -9.035035,9.66427 -18.774831,18.77733 -26.956054,29.18164 0.343968,1.91544 3.460084,1.35562 4.883789,1.94531 10.226399,1.7752 20.778406,1.83188 30.771484,4.71777 3.074367,1.93863 4.551349,5.73475 7.035864,8.33353 21.083148,27.92164 42.210068,55.82134 62.893818,84.0444 -1.14674,12.69961 -4.25154,25.28936 -5.00488,38.06348 0.67746,2.08788 3.34085,-0.0255 4.59142,-0.34449 9.81575,-4.47279 19.05316,-10.16013 28.80116,-14.70239 36.50864,11.74973 73.05407,23.53861 109.38198,35.89164 2.73566,1.05095 6.2164,1.7054 6.96886,5.07075 4.95642,9.01385 9.14243,18.50805 14.78685,27.1167 0.71716,1.56055 2.19089,0.90615 2.53125,-0.52245 5.70996,-9.9315 10.75629,-20.225 16.00489,-30.4033 36.12053,-11.18137 72.24097,-22.36301 108.36132,-33.54494 11.06819,5.74755 21.69965,12.42379 33.13282,17.42481 1.69297,1.1069 2.50907,-0.88269 2.11523,-2.31446 -0.83527,-11.95131 -3.88094,-23.78167 -4.3457,-35.69043 0.915,-3.86911 4.28672,-6.75761 6.22925,-10.19399 18.8813,-26.62081 38.10974,-53.00156 57.65747,-79.12827 4.34327,-2.81736 9.93335,-2.48528 14.86017,-3.50891 7.72205,-1.25846 15.66585,-1.61173 23.2336,-3.6034 1.0848,-1.46258 -1.6784,-2.95488 -2.2373,-4.21972 -6.7892,-8.36946 -15.22915,-15.43484 -21.14945,-24.44141 -3.32903,-6.73776 -2.08575,-14.57319 -2.70818,-21.82661 -0.76611,-29.86422 -1.10022,-59.74646 -1.21466,-89.62358 8.81954,-9.36432 18.20174,-18.31094 26.03319,-28.53516 0.4278,-1.93141 -2.8614,-1.6029 -4.02635,-2.09766 -11.26215,-1.97818 -22.78881,-2.62698 -33.92286,-5.20996 -5.97824,-6.00541 -10.44784,-13.38634 -15.69098,-20.03021 -16.67546,-22.84332 -33.85115,-45.34929 -49.58225,-68.86177 -2.85529,-3.08481 -0.30122,-7.25634 -0.27484,-10.91971 1.26058,-10.05415 3.44649,-20.05684 3.63987,-30.20979 -1.64206,-0.76424 -3.9832,1.2157 -5.78516,1.77148 -9.86615,4.73841 -19.49114,9.9568 -29.125,15.14551 C 386.54781,207.79919 349.3053,195.6348 312.06269,183.4707 306.2809,172.67272 301.30835,161.373 294.66523,151.07129 c -0.19472,-0.21987 -0.47114,-0.38756 -0.77441,-0.36328 z m 4.31347,92.63965 c 12.71886,0.0995 24.51228,6.21084 35.10254,12.75976 10.68923,7.81765 20.52846,17.30863 27.17392,28.8597 6.60545,12.19944 11.32007,25.85979 10.62024,39.86489 0.1056,23.4933 -0.65522,47.64303 -9.81815,69.63234 -0.61657,0.92388 -1.21677,3.72454 0.72614,2.54932 13.6463,-7.17294 24.98196,-18.0225 34.61094,-29.92607 5.11123,-7.54442 10.1234,-15.63764 11.95059,-24.67842 0.31335,-4.42295 -0.14957,-9.36078 -3.77134,-12.43529 -5.689,-6.94822 -12.80179,-13.01378 -16.9855,-21.03443 -1.73277,-5.61344 -0.44214,-11.67608 -0.86328,-17.4668 0.17352,-3.62552 2.66565,-6.84263 4.51758,-9.87891 5.37288,-7.79314 15.72065,-9.4166 24.44043,-8.48047 7.86958,0.40705 15.84147,3.7237 20.37109,10.36621 4.77011,6.53531 7.07262,15.14549 5.73437,23.1211 -1.09978,1.84734 -4.19737,4.48132 -5.7998,1.61719 -3.69112,-6.12432 -3.6613,-14.77168 -10.2168,-19.02149 -6.29221,-3.68534 -15.43486,-2.71344 -20.19629,3.07129 -3.59951,3.2019 -4.70859,8.37455 -3.08007,12.85547 2.77549,6.66015 9.00341,11.03964 13.60398,16.36845 4.2607,4.43758 9.37005,9.35659 8.9966,16.0046 0.39137,3.34109 -0.79327,6.73826 -0.66797,10.06836 1.78178,0.4514 3.48267,-1.81136 5.12612,-2.46689 6.57209,-4.12326 13.17055,-8.79879 20.76353,-10.75577 7.86492,-0.48494 16.13951,-1.33147 23.61133,1.62988 6.06143,2.4283 11.76746,7.75926 12.03488,14.6795 0.87881,8.22476 0.2526,17.14616 -4.17551,24.38886 -2.31422,2.89952 -6.43971,5.9737 -10.11816,3.48242 -3.17902,-1.53589 -5.20931,-5.42356 -3.45703,-8.78613 2.29182,-5.59141 5.39809,-12.4568 1.43848,-18.09668 -2.47804,-4.23637 -7.74677,-6.16233 -12.39356,-4.62891 -16.98255,5.06528 -31.22349,16.73382 -42.85937,29.76856 -9.89815,12.57991 -16.37355,27.45058 -22.48152,42.13442 -2.8357,7.86086 -6.4462,15.7521 -7.03606,24.1771 0.79786,9.19915 8.66454,15.94157 16.4375,19.8418 9.69616,4.64929 20.29535,7.65348 31.01465,8.56543 7.83605,-0.12824 16.00522,1.08374 23.58691,-1.40137 5.59901,-2.00495 11.02805,-5.64731 12.94238,-11.56738 2.46047,-7.19703 2.09749,-15.12768 0.8252,-22.53516 -1.88028,-8.37675 -6.83756,-17.00929 -15.19434,-20.18847 -4.78592,-0.71235 -9.76809,-0.67935 -14.56347,-0.0635 -6.87924,2.18046 -11.31488,8.36226 -14.15524,14.67134 -2.30535,3.61743 -3.20256,8.94347 -7.46586,10.84428 -4.60667,1.69254 -8.53818,-3.32236 -8.17383,-7.58886 -1.3379,-13.476 6.14333,-27.57505 18.68292,-33.20326 11.05776,-5.60183 24.41364,-6.26191 36.13056,-2.28502 16.09828,6.38726 27.73473,22.74113 28.32573,40.06708 0.84285,12.2304 0.003,24.7838 -5.08645,36.12978 -5.28295,13.17388 -18.31418,21.8417 -31.92092,24.44278 -15.96769,3.44898 -32.52321,1.18301 -48.40658,-1.6679 -10.36764,-1.8975 -20.14733,-5.95844 -30.06119,-9.3985 -1.22473,1.0446 1.48805,2.5534 1.91504,3.66015 12.21504,14.10184 24.30322,29.97628 26.76269,49.0293 1.47399,13.56558 -0.22867,28.71929 -9.15918,39.66797 -7.87731,9.19666 -20.51667,13.79149 -32.51855,13.17955 -10.14491,0.39874 -20.53107,-0.52063 -29.75,-5.13463 -13.10402,-6.08084 -21.45271,-19.72578 -23.56761,-33.67684 -0.0612,-6.71315 -0.86172,-13.63554 0.70433,-20.20988 0.97123,-4.00287 5.60012,-7.37527 9.55273,-5.0791 5.91814,3.35638 5.66251,11.07319 6.84766,16.88379 1.48285,9.38409 4.87052,19.46758 13.41211,24.69531 7.0306,4.85163 16.31339,6.3043 24.51562,4.1211 7.88555,-3.34759 12.46604,-12.04299 11.72106,-20.441 -0.96129,-10.75947 -4.78126,-21.37649 -10.89617,-30.28411 -7.49046,-10.50009 -18.45007,-17.89215 -30.23401,-22.79974 -11.99318,-5.09572 -24.24184,-9.52614 -36.02936,-15.11773 -2.48466,-1.3923 -5.34066,-1.38241 -7.82421,0.0147 -12.88363,6.08732 -26.29556,10.94611 -39.29328,16.76748 -12.13978,5.38322 -22.67892,14.50135 -29.61395,25.83213 -5.01035,9.33329 -8.99406,20.0176 -7.75684,30.76953 1.21725,8.49571 8.58184,16.82839 17.70996,16.01294 10.04087,0.93946 20.1614,-4.03275 25.78637,-12.348 5.93503,-8.47799 5.28224,-19.33823 8.31031,-28.79482 1.4901,-3.12837 4.198,-7.0688 8.16602,-5.97559 5.5439,1.27958 6.46412,8.09912 6.86523,12.83984 1.23563,16.09177 -4.3248,33.61188 -17.93066,43.23047 -9.82475,7.44619 -22.52901,8.8034 -34.43943,8.7461 -11.96366,0.82475 -24.3894,-3.41682 -32.80178,-12.0586 -8.90306,-9.81429 -11.01506,-23.73783 -10.64368,-36.46898 1.34151,-19.33293 12.3544,-36.19447 24.74615,-50.42859 1.567,-2.11756 3.88354,-3.93121 4.91804,-6.33876 -1.50971,-0.79407 -3.51266,1.03415 -5.12852,1.29501 -19.46009,7.52177 -40.37662,11.7354 -61.25039,11.15226 -14.20886,-0.7145 -29.54848,-5.0241 -38.74609,-16.7207 -10.96397,-14.02135 -12.44039,-33.00364 -10.28057,-50.06272 1.28778,-11.35105 7.69621,-21.47773 16.41631,-28.66678 7.89532,-6.73608 18.49182,-10.2275 28.82226,-9.36816 9.51511,0.17057 18.60684,4.16871 26.2334,9.58203 8.48271,7.77975 12.89567,20.14627 10.60254,31.38574 -0.97941,3.98553 -6.54177,6.9497 -9.61621,3.3418 -5.8478,-7.51676 -7.93344,-18.66019 -17.17969,-23.28223 -4.92222,-2.01951 -10.47273,-0.94359 -15.65918,-1.03613 -6.70757,0.73447 -10.59407,7.32323 -13.63934,12.63411 -4.93666,7.76904 -3.54058,17.32049 -3.37726,26.02116 0.64347,7.12273 6.35775,12.81779 12.85938,15.19825 7.55175,3.24579 16.02216,1.78585 23.99609,2.01953 10.61391,-0.65244 21.06272,-3.69406 30.74121,-8.03321 7.96569,-3.79395 16.39958,-10.19063 17.42676,-19.60351 -0.0101,-9.33242 -4.18979,-18.03576 -7.39746,-26.61719 -5.69269,-13.18432 -11.64985,-26.4623 -20.03914,-38.18107 -11.56798,-13.87165 -26.14333,-25.92757 -43.41496,-31.80916 -4.25618,-1.64901 -9.51443,-1.10391 -12.46289,2.69336 -3.64959,3.85061 -4.18872,9.71739 -1.90821,14.40722 1.20263,3.45303 4.67095,7.8097 1.58399,11.29395 -1.92938,2.80389 -5.76776,5.26592 -8.93848,2.74902 -7.32203,-4.55717 -8.55121,-14.06393 -8.81497,-21.87498 -0.47512,-8.19616 3.34661,-17.51691 11.63919,-20.23342 7.06356,-2.30939 14.92279,-3.54307 22.34473,-2.42968 10.17295,2.26581 18.56962,8.65153 27.34472,13.87304 1.93372,0.18235 0.31879,-2.67981 0.40039,-3.59961 -2.20254,-7.25253 1.07219,-14.75405 6.05503,-20.00868 5.06024,-6.235 12.11867,-10.98036 15.94497,-18.1671 1.9711,-5.59152 0.459,-12.64269 -4.81347,-15.9082 -6.29237,-4.37677 -16.45053,-4.33688 -21.48438,1.96191 -3.63625,5.14387 -3.92928,11.99681 -7.61719,17.06836 -2.96409,1.32249 -5.65577,-2.20824 -5.39843,-5.06445 -0.76322,-11.57818 5.23339,-24.51318 16.57031,-28.79297 7.77615,-2.92593 16.44578,-2.98791 24.41992,-0.9248 7.05768,2.38388 12.59495,9.0796 14.00586,16.35351 0.50475,6.23654 1.14816,12.78701 -0.81152,18.83203 -4.98925,9.91743 -15.28065,16.034 -19.99512,26.09864 -2.43885,6.75064 1.59618,13.58684 4.2627,19.6289 9.24443,17.72179 24.24482,32.35157 41.84082,41.72949 1.3435,0.9895 2.00147,-0.65231 1.16601,-1.70605 -8.40954,-18.88091 -9.53026,-39.80497 -10.31048,-60.17929 -0.39829,-12.09731 -0.26395,-24.53555 4.18353,-35.95645 7.71576,-22.44898 25.7178,-40.68166 47.17549,-50.42584 7.23141,-3.22009 15.05402,-5.45341 22.95341,-5.36713 z"
         style="fill:#072047;fill-opacity:1;stroke:none;stroke-width:0.5" />
      <path
         inkscape:connector-curvature="0"
         id="path833"
         d="m 267.46797,373.10547 c -9.34406,0.13718 -17.68635,9.80789 -15.14258,19.12793 1.5424,6.7748 4.51015,15.09923 11.98731,17.10156 5.90451,1.89185 12.39081,-1.0818 15.44042,-6.33008 2.64113,-4.47276 4.83841,-9.65291 4.79883,-14.90625 -1.16231,-8.13245 -8.59988,-15.50374 -17.08398,-14.99316 z"
         style="fill:#072047;fill-opacity:1;stroke:none;stroke-width:0.5" />
      <path
         sodipodi:nodetypes="ccccccc"
         inkscape:connector-curvature="0"
         id="path835"
         d="m 326.71406,372.88574 c -4.29778,-0.17907 -8.67936,1.85143 -11.34045,5.4012 -5.14779,4.78163 -5.32425,12.58503 -2.85877,18.74236 2.33098,6.54643 7.7806,13.45562 15.42286,13.0332 8.75613,-1.29549 13.82742,-10.41181 14.95312,-18.47949 1.03436,-5.69775 -1.617,-11.3434 -5.99316,-14.94141 -2.58889,-2.94591 -6.51321,-3.87023 -10.1836,-3.75586 z"
         style="fill:#072047;fill-opacity:1;stroke:none;stroke-width:0.5" />
    </g>
    <path
       inkscape:export-ydpi="299.99945"
       inkscape:export-xdpi="299.99945"
       inkscape:connector-curvature="0"
       id="path5180"
       style="opacity:1;fill:#072047;fill-opacity:1;fill-rule:nonzero;stroke:none;stroke-width:0.59139115"
       d="m 154.50971,249.86654 c -1.06494,0 -2.03783,0.1319 -2.89134,0.39158 -0.84873,0.25792 -1.63573,0.61358 -2.33895,1.05698 -0.69848,0.44105 -1.34054,0.95158 -1.90716,1.51805 -0.22333,0.22258 -0.44131,0.45165 -0.65157,0.68542 v -2.63391 c 0,-0.27323 -0.22333,-0.49464 -0.49891,-0.49464 h -8.02422 c -0.27559,0 -0.49892,0.22141 -0.49892,0.49464 v 28.05266 c 0,0.27321 0.22333,0.49463 0.49892,0.49463 h 8.02422 c 0.27558,0 0.49891,-0.22142 0.49891,-0.49463 v -15.61034 c 0,-1.7418 0.40744,-3.06023 1.21225,-3.91818 0.80717,-0.86031 1.88757,-1.27839 3.30353,-1.27839 1.41063,0 2.4619,0.41455 3.21444,1.2672 0.75906,0.85972 1.14394,2.18109 1.14394,3.92937 v 15.61034 c 0,0.27321 0.22272,0.49463 0.49832,0.49463 h 8.02422 c 0.275,0 0.49832,-0.22142 0.49832,-0.49463 V 260.7761 c 0,-3.35348 -0.88616,-6.03567 -2.63474,-7.97122 -1.76285,-1.94967 -4.27642,-2.93834 -7.47126,-2.93834" />
    <path
       inkscape:export-ydpi="299.99945"
       inkscape:export-xdpi="299.99945"
       inkscape:connector-curvature="0"
       id="path5184"
       style="opacity:1;fill:#072047;fill-opacity:1;fill-rule:nonzero;stroke:none;stroke-width:0.59139115"
       d="m 195.04265,241.80647 h -26.25184 c -0.27501,0 -0.49832,0.2214 -0.49832,0.49463 v 36.63569 c 0,0.27322 0.22331,0.49462 0.49832,0.49462 h 8.12994 c 0.27559,0 0.4989,-0.2214 0.4989,-0.49462 v -13.68893 h 15.2478 c 0.2756,0 0.49893,-0.2214 0.49893,-0.49463 v -7.27461 c 0,-0.27323 -0.22333,-0.49463 -0.49893,-0.49463 h -15.2478 v -6.91365 h 17.623 c 0.27559,0 0.49892,-0.22141 0.49892,-0.49463 v -7.27461 c 0,-0.27323 -0.22333,-0.49463 -0.49892,-0.49463" />
    <path
       inkscape:export-ydpi="299.99945"
       inkscape:export-xdpi="299.99945"
       inkscape:connector-curvature="0"
       id="path5188"
       style="opacity:1;fill:#072047;fill-opacity:1;fill-rule:nonzero;stroke:none;stroke-width:0.59139115"
       d="m 206.74459,252.53926 h -8.02422 c -0.2756,0 -0.49891,0.2214 -0.49891,0.49463 v 25.90336 c 0,0.27265 0.22331,0.49404 0.49891,0.49404 h 8.02422 c 0.27559,0 0.49891,-0.22139 0.49891,-0.49404 v -25.90336 c 0,-0.27323 -0.22332,-0.49463 -0.49891,-0.49463" />
    <path
       inkscape:export-ydpi="299.99945"
       inkscape:export-xdpi="299.99945"
       inkscape:connector-curvature="0"
       id="path5192"
       style="opacity:1;fill:#072047;fill-opacity:1;fill-rule:nonzero;stroke:none;stroke-width:0.59139115"
       d="m 206.74732,241.82513 h -8.01946 c -0.2756,0 -0.49893,0.22141 -0.49893,0.49463 v 7.23752 c 0,0.27264 0.22333,0.49404 0.49893,0.49404 h 8.01946 c 0.27559,0 0.49892,-0.2214 0.49892,-0.49404 v -7.23752 c 0,-0.27322 -0.22333,-0.49463 -0.49892,-0.49463" />
    <path
       inkscape:export-ydpi="299.99945"
       inkscape:export-xdpi="299.99945"
       inkscape:connector-curvature="0"
       id="path5196"
       style="opacity:1;fill:#072047;fill-opacity:1;fill-rule:nonzero;stroke:none;stroke-width:0.59139115"
       d="m 134.81753,250.78061 c -0.003,-0.0154 -0.007,-0.03 -0.0118,-0.0453 -0.0101,-0.0318 -0.0244,-0.0612 -0.0409,-0.0913 -0.007,-0.0107 -0.0101,-0.0218 -0.0172,-0.0324 -0.002,-0.003 -0.003,-0.006 -0.005,-0.009 -0.0249,-0.0359 -0.0547,-0.0665 -0.0874,-0.0942 -10e-4,-0.001 -0.002,-0.003 -0.003,-0.004 -0.007,-0.005 -0.0135,-0.007 -0.0202,-0.0119 -0.0298,-0.0224 -0.0606,-0.0412 -0.0944,-0.0565 -0.0152,-0.006 -0.0285,-0.0112 -0.0428,-0.0159 -0.0298,-0.01 -0.0594,-0.0171 -0.0909,-0.0218 -0.0152,-0.002 -0.0308,-0.005 -0.047,-0.006 -0.008,0 -0.0152,-0.002 -0.0237,-0.002 h -8.3408 c -0.21678,0 -0.40863,0.13838 -0.47515,0.3433 l -5.71128,17.66473 -5.95729,-17.67069 c -0.0683,-0.20198 -0.25895,-0.33741 -0.47338,-0.33741 h -8.49939 c -0.16517,0 -0.31895,0.0807 -0.41221,0.21552 -0.0926,0.13483 -0.1123,0.30619 -0.0522,0.4587 l 11.00346,27.94843 c -0.27915,0.51112 -0.5684,0.86502 -0.86062,1.05405 -0.32015,0.20726 -0.78818,0.31209 -1.39043,0.31209 -0.4704,0 -0.99309,-0.0966 -1.55377,-0.28678 -0.5791,-0.19667 -1.12434,-0.44634 -1.62088,-0.74135 -0.12122,-0.0724 -0.26847,-0.0906 -0.40329,-0.0489 -0.13486,0.0412 -0.2459,0.13721 -0.30589,0.26438 l -2.69235,5.75716 c -0.10809,0.23141 -0.0214,0.50582 0.20016,0.63478 1.04832,0.60887 2.16672,1.09937 3.32433,1.45856 1.17066,0.36214 2.53495,0.54587 4.05487,0.54587 1.23896,0 2.35381,-0.14772 3.31481,-0.44046 0.97941,-0.29972 1.86618,-0.79141 2.63653,-1.46211 0.75727,-0.65951 1.45635,-1.51805 2.07882,-2.55205 0.002,-0.003 0.003,-0.007 0.005,-0.008 l 4.4e-4,-4.5e-4 0.007,-0.01 c 0.095,-0.15907 0.18947,-0.32562 0.28332,-0.49579 l 12.00955,-21.01472 c 0.10809,-0.18962 0.079,-0.42692 -0.0731,-0.58473 -0.15152,-0.15782 -0.38962,-0.19844 -0.58563,-0.1001 l -3.29461,1.64995 4.25027,-11.88352 4.5e-4,-4.4e-4 v -4.4e-4 l 0.003,-0.008 c 0.002,-0.006 0.002,-0.0123 0.003,-0.0182 0.0118,-0.0377 0.019,-0.0754 0.0219,-0.11365 4.3e-4,-0.0154 0,-0.0306 -4.6e-4,-0.0459 -4.4e-4,-0.0306 -0.003,-0.0612 -0.0101,-0.0913" />
    <path
       inkscape:export-ydpi="299.99945"
       inkscape:export-xdpi="299.99945"
       inkscape:connector-curvature="0"
       id="path5200"
       style="opacity:1;fill:#072047;fill-opacity:1;fill-rule:nonzero;stroke:none;stroke-width:0.59139115"
       d="m 94.166392,260.72387 c 0,1.5681 -0.263117,3.00194 -0.781035,4.26207 -0.519113,1.26013 -1.246693,2.36893 -2.164338,3.2946 -0.912897,0.92155 -2.034278,1.63994 -3.333231,2.13516 -1.309054,0.49934 -2.776101,0.75195 -4.361355,0.75195 h -5.782657 v -21.09719 h 5.782657 c 1.582863,0 3.048142,0.26144 4.356001,0.77609 1.300149,0.51289 2.423903,1.24071 3.338585,2.16402 0.91645,0.92566 1.644046,2.04978 2.162553,3.34229 0.519114,1.29605 0.78282,2.73166 0.78282,4.26619 z m 8.031948,-7.59907 c -0.97229,-2.26705 -2.369855,-4.26796 -4.154063,-5.94852 -1.781245,-1.67645 -3.931929,-3.00489 -6.392653,-3.9494 -2.458939,-0.94216 -5.192276,-1.4203 -8.125191,-1.4203 H 69.11491 c -0.274987,0 -0.49832,0.22141 -0.49832,0.49463 v 36.63628 c 0,0.27264 0.223333,0.49404 0.49832,0.49404 h 14.411523 c 2.935878,0 5.67041,-0.48697 8.128171,-1.44739 2.460707,-0.96218 4.610212,-2.29885 6.389673,-3.97412 1.784208,-1.67939 3.181773,-3.69031 4.154063,-5.97621 0.97228,-2.28354 1.46526,-4.77849 1.46526,-7.41476 v -0.10422 c 0,-2.63568 -0.49298,-5.12179 -1.46526,-7.39002" />
    <path
       inkscape:export-ydpi="299.99945"
       inkscape:export-xdpi="299.99945"
       inkscape:connector-curvature="0"
       id="path4545"
       d="m 210.97938,243.85454 v -1.06741 l 0.57796,0.003 c 0.55656,0.003 0.58032,0.003 0.64236,0.0185 0.17322,0.0425 0.28378,0.1013 0.39053,0.20797 0.0752,0.0752 0.11072,0.13299 0.14125,0.2299 0.0159,0.0506 0.0177,0.0703 0.0174,0.19162 -2.7e-4,0.12664 -0.001,0.1391 -0.0209,0.19539 -0.0368,0.10786 -0.0859,0.17976 -0.17706,0.25924 -0.0781,0.0681 -0.2069,0.13449 -0.31251,0.1612 -0.0192,0.005 -0.0344,0.0114 -0.0336,0.0144 6.3e-4,0.003 0.1389,0.18355 0.30697,0.40114 0.16809,0.21757 0.31533,0.40851 0.32721,0.4243 l 0.0216,0.0287 -0.19199,-0.003 -0.19201,-0.002 -0.30726,-0.39826 -0.30727,-0.39828 -0.28219,-0.003 -0.28219,-0.003 v 0.40212 0.40213 h -0.15918 -0.15917 z m 1.0354,-0.0223 c 0.0896,-0.0112 0.14305,-0.0264 0.21524,-0.0613 0.13464,-0.0652 0.20432,-0.17497 0.20456,-0.32211 1.7e-4,-0.10563 -0.0338,-0.19033 -0.10156,-0.2539 -0.0489,-0.0458 -0.0921,-0.0707 -0.1636,-0.0941 -0.0908,-0.0298 -0.16851,-0.0349 -0.53247,-0.0349 l -0.3392,-1e-5 v 0.38699 0.387 h 0.32804 c 0.18039,0 0.35546,-0.003 0.38902,-0.008 z"
       style="opacity:1;fill:#072047;fill-opacity:1;stroke-width:0.00754703" />
    <path
       inkscape:export-ydpi="299.99945"
       inkscape:export-xdpi="299.99945"
       inkscape:connector-curvature="0"
       id="path4547"
       d="m 211.56878,245.99632 c -0.15519,-0.0174 -0.32572,-0.0553 -0.47191,-0.10483 -0.20358,-0.069 -0.47544,-0.22366 -0.65185,-0.37079 -0.3728,-0.31092 -0.63404,-0.76445 -0.71575,-1.24258 -0.10145,-0.59368 0.0534,-1.19056 0.4314,-1.66313 0.0745,-0.0931 0.23515,-0.25366 0.32604,-0.32581 0.29992,-0.23806 0.6424,-0.38658 1.02852,-0.44602 0.1162,-0.0179 0.47963,-0.0179 0.59583,0 0.25067,0.0386 0.44123,0.0999 0.67228,0.21614 0.52745,0.2655 0.91943,0.7545 1.06884,1.33344 0.16621,0.64411 0.0163,1.31543 -0.41188,1.84505 -0.31524,0.38987 -0.80652,0.66745 -1.32397,0.74803 -0.092,0.0143 -0.45179,0.0212 -0.54755,0.0105 z m 0.47327,-0.17625 c 0.2214,-0.0257 0.41696,-0.084 0.61623,-0.18387 0.2168,-0.10863 0.36961,-0.21971 0.53462,-0.38864 0.15042,-0.15398 0.24629,-0.28896 0.34069,-0.47965 0.0659,-0.13319 0.10006,-0.22514 0.13645,-0.36772 0.0475,-0.18598 0.0567,-0.26545 0.0567,-0.48894 0,-0.15168 -0.003,-0.21554 -0.0138,-0.28555 -0.12945,-0.83978 -0.76328,-1.47681 -1.60032,-1.60838 -0.1051,-0.0165 -0.37931,-0.0229 -0.49307,-0.0114 -0.33118,0.0333 -0.64539,0.14976 -0.92433,0.34252 -0.41462,0.28656 -0.69516,0.73353 -0.78543,1.25144 -0.0157,0.0901 -0.0176,0.12478 -0.0176,0.32267 -2e-5,0.24383 0.008,0.31199 0.056,0.498 0.0779,0.29962 0.25152,0.60711 0.47202,0.83608 0.29396,0.30525 0.70964,0.51233 1.12968,0.56278 0.1176,0.0141 0.37331,0.0145 0.49224,6.3e-4 z"
       style="opacity:1;fill:#072047;fill-opacity:1;stroke-width:0.00754703" />
    <text
       id="text6405"
       y="301.82864"
       x="66.873436"
       style="font-style:normal;font-weight:normal;font-size:10.58333302px;line-height:1.25;font-family:sans-serif;letter-spacing:0px;word-spacing:0px;opacity:1;fill:#1b2543;fill-opacity:1;stroke:none;stroke-width:0.26458332"
       xml:space="preserve"><tspan
         style="font-style:italic;font-variant:normal;font-weight:normal;font-stretch:normal;font-size:7.4083333px;line-height:0;font-family:'Gotham Book';-inkscape-font-specification:'Gotham Book, Italic';letter-spacing:-0.26458332px;opacity:1;stroke-width:0.26458332"
         y="311.19241"
         x="66.873436"
         id="tspan6403"
         sodipodi:role="line" /></text>
    <g
       aria-label="DYNAMIC FIREWALLS"
       transform="matrix(0.26458333,0,0,0.26458333,65.224319,170.63883)"
       style="font-style:normal;font-weight:normal;font-size:26.66666985px;line-height:1;font-family:sans-serif;letter-spacing:0px;word-spacing:0px;opacity:1;fill:#072047;fill-opacity:1;stroke:none"
       id="flowRoot6443"
       inkscape:export-xdpi="299.99945"
       inkscape:export-ydpi="299.99945">
      <path
         d="m 246.8126,428.16394 h 5.65104 q 4.50521,0 6.79688,1.91406 2.30469,1.90104 2.30469,5.66407 0,2.48698 -0.8724,4.79166 -0.8724,2.29167 -2.40885,3.86719 -1.54948,1.61458 -3.9323,2.40886 -2.38281,0.79427 -5.63802,0.79427 h -5.6901 z m 2.21354,2.16146 -2.92969,15.11719 h 3.4375 q 4.41407,0 6.83594,-2.53906 2.42188,-2.53907 2.42188,-7.16146 0,-2.79948 -1.5625,-4.10157 -1.5625,-1.3151 -4.89584,-1.3151 z"
         style="font-style:italic;letter-spacing:1.5px;word-spacing:4px;fill:#072047;fill-opacity:1"
         id="path8265"
         inkscape:connector-curvature="0" />
      <path
         d="m 266.00791,428.16394 h 2.82553 l 3.63281,7.99479 6.92708,-7.99479 h 2.95573 l -8.8151,10.18229 -1.79688,9.25782 h -2.63021 l 1.78386,-9.25782 z"
         style="font-style:italic;letter-spacing:1.5px;word-spacing:4px;fill:#072047;fill-opacity:1"
         id="path8267"
         inkscape:connector-curvature="0" />
      <path
         d="m 286.63552,428.16394 h 3.54167 l 5.36458,16.66667 3.25521,-16.66667 h 2.56511 l -3.78907,19.44011 h -3.55468 l -5.35157,-16.77084 -3.25521,16.77084 h -2.5651 z"
         style="font-style:italic;letter-spacing:1.5px;word-spacing:4px;fill:#072047;fill-opacity:1"
         id="path8269"
         inkscape:connector-curvature="0" />
      <path
         d="m 313.39594,428.16394 h 2.98178 l 3.60677,19.44011 h -2.7474 l -0.80729,-4.98698 h -8.75 l -2.7474,4.98698 h -2.77344 z m 0.95053,2.59115 -5.45573,9.67448 h 7.13541 z"
         style="font-style:italic;letter-spacing:1.5px;word-spacing:4px;fill:#072047;fill-opacity:1"
         id="path8271"
         inkscape:connector-curvature="0" />
      <path
         d="m 327.81261,428.16394 h 3.94531 l 2.26563,13.09896 7.52604,-13.09896 h 4.04948 l -3.78906,19.44011 h -2.55209 l 3.30729,-17.04428 -7.63021,13.3073 h -2.5651 l -2.47396,-13.35938 -3.30729,17.09636 h -2.56511 z"
         style="font-style:italic;letter-spacing:1.5px;word-spacing:4px;fill:#072047;fill-opacity:1"
         id="path8273"
         inkscape:connector-curvature="0" />
      <path
         d="m 352.33344,428.16394 h 2.64323 l -3.78906,19.44011 h -2.64323 z"
         style="font-style:italic;letter-spacing:1.5px;word-spacing:4px;fill:#072047;fill-opacity:1"
         id="path8275"
         inkscape:connector-curvature="0" />
      <path
         d="m 375.72147,429.66134 -0.53386,2.77343 q -1.25,-1.26302 -2.65625,-1.875 -1.39323,-0.61198 -3.02083,-0.61198 -2.22656,0 -3.91927,1.06771 -1.67969,1.06771 -2.90365,3.25521 -0.78125,1.40625 -1.19791,2.98177 -0.40365,1.5625 -0.40365,3.15104 0,2.65626 1.36719,4.04948 1.38021,1.39323 3.99739,1.39323 1.8099,0 3.47657,-0.57291 1.66666,-0.58594 3.24219,-1.74479 l -0.61198,3.11197 q -1.54948,0.66407 -3.13803,1.00261 -1.57552,0.33854 -3.16406,0.33854 -3.73698,0 -5.84635,-2.03125 -2.09636,-2.03125 -2.09636,-5.65104 0,-2.31771 0.79427,-4.55729 0.8073,-2.23959 2.30469,-4.08855 1.58854,-1.96614 3.61979,-2.90364 2.04427,-0.9375 4.75261,-0.9375 1.66666,0 3.15104,0.46875 1.4974,0.45573 2.78646,1.38021 z"
         style="font-style:italic;letter-spacing:1.5px;word-spacing:4px;fill:#072047;fill-opacity:1"
         id="path8277"
         inkscape:connector-curvature="0" />
      <path
         d="m 390.77822,428.16394 h 11.14584 l -0.42969,2.21354 h -8.52865 l -1.11979,5.72917 h 7.70834 l -0.42969,2.21354 h -7.70834 l -1.80989,9.28386 h -2.61719 z"
         style="font-style:italic;letter-spacing:1.5px;word-spacing:4px;fill:#072047;fill-opacity:1"
         id="path8279"
         inkscape:connector-curvature="0" />
      <path
         d="m 407.64282,428.16394 h 2.64323 l -3.78907,19.44011 h -2.64323 z"
         style="font-style:italic;letter-spacing:1.5px;word-spacing:4px;fill:#072047;fill-opacity:1"
         id="path8281"
         inkscape:connector-curvature="0" />
      <path
         d="m 419.22094,430.3254 -1.32813,6.90104 h 3.38542 q 1.99219,0 3.21615,-1.09375 1.23697,-1.10677 1.23697,-2.8776 0,-1.41927 -0.83333,-2.17448 -0.82031,-0.75521 -2.36979,-0.75521 z m 4.83073,7.94271 q 0.83333,0.19531 1.38021,0.96354 0.55989,0.76823 1.28906,3.0599 l 1.65364,5.3125 h -2.77343 l -1.52344,-4.98698 q -0.58594,-1.92709 -1.35417,-2.57813 -0.76823,-0.65104 -2.35677,-0.65104 h -2.90365 l -1.60156,8.21615 h -2.64323 l 3.78907,-19.44011 h 5.92448 q 2.69531,0 4.1276,1.22396 1.44531,1.21094 1.44531,3.5026 0,2.03125 -1.22396,3.51563 -1.22395,1.48437 -3.22916,1.86198 z"
         style="font-style:italic;letter-spacing:1.5px;word-spacing:4px;fill:#072047;fill-opacity:1"
         id="path8283"
         inkscape:connector-curvature="0" />
      <path
         d="m 437.04907,428.16394 h 12.29167 l -0.42969,2.21354 h -9.67448 l -1.11979,5.75521 h 9.28385 l -0.42969,2.21354 h -9.28385 l -1.35417,7.04427 h 9.89584 l -0.42969,2.21355 H 433.26 Z"
         style="font-style:italic;letter-spacing:1.5px;word-spacing:4px;fill:#072047;fill-opacity:1"
         id="path8285"
         inkscape:connector-curvature="0" />
      <path
         d="m 453.48396,428.16394 h 2.55209 l 0.9375,16.53646 7.33073,-16.53646 h 2.92968 l 0.96355,16.53646 7.2526,-16.53646 h 2.66927 l -8.64583,19.44011 h -3.30729 l -0.89844,-16.21094 -7.27865,16.21094 h -3.30729 z"
         style="font-style:italic;letter-spacing:1.5px;word-spacing:4px;fill:#072047;fill-opacity:1"
         id="path8287"
         inkscape:connector-curvature="0" />
      <path
         d="m 487.31469,428.16394 h 2.98177 l 3.60678,19.44011 h -2.7474 l -0.80729,-4.98698 h -8.75 l -2.7474,4.98698 h -2.77344 z m 0.95052,2.59115 -5.45573,9.67448 h 7.13542 z"
         style="font-style:italic;letter-spacing:1.5px;word-spacing:4px;fill:#072047;fill-opacity:1"
         id="path8289"
         inkscape:connector-curvature="0" />
      <path
         d="m 501.73137,428.16394 h 2.64323 l -3.33334,17.25261 h 9.46615 l -0.42969,2.1875 h -12.10937 z"
         style="font-style:italic;letter-spacing:1.5px;word-spacing:4px;fill:#072047;fill-opacity:1"
         id="path8291"
         inkscape:connector-curvature="0" />
      <path
         d="m 518.07512,428.16394 h 2.64323 l -3.33334,17.25261 h 9.46615 l -0.42969,2.1875 H 514.3121 Z"
         style="font-style:italic;letter-spacing:1.5px;word-spacing:4px;fill:#072047;fill-opacity:1"
         id="path8293"
         inkscape:connector-curvature="0" />
      <path
         d="m 546.02043,428.80196 -0.50781,2.56511 q -1.3151,-0.70313 -2.61719,-1.05469 -1.28906,-0.36459 -2.5,-0.36459 -2.35677,0 -3.75,1.02865 -1.39323,1.02865 -1.39323,2.73438 0,0.9375 0.50781,1.44531 0.52084,0.49479 2.65626,1.06771 l 1.57552,0.39062 q 2.66927,0.69011 3.71093,1.75781 1.04167,1.05469 1.04167,2.96876 0,2.9427 -2.31771,4.79166 -2.30469,1.84896 -6.08073,1.84896 -1.54948,0 -3.11198,-0.3125 -1.5625,-0.29948 -3.13802,-0.92448 l 0.53386,-2.70833 q 1.44531,0.89844 2.89062,1.35416 1.45833,0.45573 2.90365,0.45573 2.46094,0 3.94531,-1.09375 1.48438,-1.09375 1.48438,-2.85156 0,-1.17187 -0.59896,-1.77083 -0.58594,-0.61198 -2.53907,-1.10677 l -1.57552,-0.40365 q -2.69531,-0.70312 -3.68489,-1.61458 -0.97657,-0.92448 -0.97657,-2.57813 0,-2.90364 2.22657,-4.7526 2.23958,-1.86198 5.82031,-1.86198 1.39323,0 2.76042,0.24739 1.36719,0.2474 2.73437,0.74219 z"
         style="font-style:italic;letter-spacing:1.5px;word-spacing:4px;fill:#072047;fill-opacity:1"
         id="path8295"
         inkscape:connector-curvature="0" />
    </g>
  </g>
</svg>
